<svg width="17" height="17" viewBox="0 0 17 17" fill="none" xmlns="http://www.w3.org/2000/svg">
<ellipse cx="8.75904" cy="6.01042" rx="6.75904" ry="5.01042" fill="white"/>
<path d="M8.046 13.0837C7.76433 13.2895 7.37221 13.0646 7.41075 12.7194L8.22576 5.42064C8.25774 5.13424 8.57479 4.97406 8.82531 5.11774L13.9661 8.066C14.2167 8.20968 14.2355 8.56251 14.0018 8.73322L8.046 13.0837Z" fill="white"/>
<path d="M4.25401 7.70225V4.79316H4.95713V7.13122H6.16736V7.70225H4.25401ZM7.23448 4.79316V7.70225H6.53135V4.79316H7.23448ZM7.67588 4.79316H8.54662L9.28526 6.59429H9.31935L10.058 4.79316H10.9287V7.70225H10.2441V5.91532H10.2199L9.52105 7.68378H9.08355L8.38469 5.90537H8.36054V7.70225H7.67588V4.79316ZM11.3673 7.70225V4.79316H13.3957V5.36418H12.0704V5.96077H13.292V6.53321H12.0704V7.13122H13.3957V7.70225H11.3673Z" fill="#06C755"/>
</svg>
